HIERARCHY
ROOT Hips
{
	OFFSET 0.00000 0.00000 0.00000
	CHANNELS 6 Xposition Yposition Zposition Yrotation Zrotation Xrotation 
	JOINT Lumbar
	{
		OFFSET 0 0 0
		CHANNELS 3 Zrotation Xrotation Yrotation
		JOINT Neck
		{
			OFFSET 0.00 0.2701 0.00
			CHANNELS 3 Zrotation Xrotation Yrotation
			End Site
			{
				OFFSET 0.00 0.1379 0.00
			}
		}
		JOINT RightShoulder
		{
			OFFSET 0.0119 0.2289 0.1181
			CHANNELS 3 Zrotation Xrotation Yrotation
			JOINT RightElbow
			{
				OFFSET 0.00 -0.1475 0.00
				CHANNELS 2 Zrotation Yrotation
				JOINT RightWrist
				{
					OFFSET 0.00 -0.1605 0.00
					CHANNELS 2 Zrotation Xrotation
					End Site
					{
						OFFSET 0.0040 -0.1068 0.0006
					}
				}
			}
		}
		JOINT LeftShoulder
		{
			OFFSET 0.0119 0.2289 -0.1181
			CHANNELS 3 Zrotation Xrotation Yrotation
			JOINT LeftElbow
			{
				OFFSET 0.00 -0.1475 0.00
				CHANNELS 2 Zrotation Yrotation
				JOINT LeftWrist
				{
					OFFSET 0.00 -0.1605 0.00
					CHANNELS 2 Zrotation Xrotation
					End Site
					{
						OFFSET 0.0040 -0.1068 -0.0006
					}
				}
			}
		}
	}
	JOINT RightHip
	{
		OFFSET 0.0316 -0.0424 0.0458
		CHANNELS 3 Zrotation Xrotation Yrotation
		JOINT RightKnee
		{
			OFFSET 0.00 -0.2438 0.00
			CHANNELS 1 Zrotation
			JOINT RightAnkle
			{
				OFFSET 0.00 -0.2449 0.00
				CHANNELS 3 Zrotation Xrotation Yrotation
				End Site
				{
					OFFSET 0.1237 -0.0542 0.0051
				}
			}
		}
	}
	JOINT LeftHip
	{
		OFFSET 0.0316 -0.0424 -0.0458
		CHANNELS 3 Zrotation Xrotation Yrotation
		JOINT LeftKnee
		{
			OFFSET 0.00 -0.2438 0.00
			CHANNELS 1 Zrotation
			JOINT LeftAnkle
			{
				OFFSET 0.00 -0.2449 0.00
				CHANNELS 3 Zrotation Xrotation Yrotation
				End Site
				{
					OFFSET 0.1237 -0.0542 -0.0051
				}
			}
		}
	}
}
MOTION
Frames: 16
Frame Time: 0.02
-0.547 -0.12233 0.74403 -185.23988 -46.14095 -11.76253 38.07309 0.6815 3.35495 4.56054 11.13417 -0.83079 65.5625 -11.07298 18.58112 123.45751 116.60145 -56.21915 -6.90738 -61.91342 59.11799 -37.16948 112.40101 -130.84788 -47.98186 9.56846 40.13273 -6.29775 -6.51744 -22.41931 -7.08284 -3.40407 -2.42213 30.75531 -2.5224 0.65772 -11.39314 -6.52609 3.77481 2.62792
-0.55247 -0.12333 0.74438 -185.32105 -46.13208 -11.90252 37.96104 0.91525 2.95938 4.54032 10.54966 -0.83079 67.08074 -10.97138 18.82313 122.56591 116.33676 -55.78675 -6.89535 -61.8676 59.30595 -37.20427 112.27008 -130.73254 -47.63051 9.56202 42.14877 -6.27818 -6.30118 -21.96518 -7.02551 -3.33352 -2.38241 29.05755 -2.44865 -3.91573 -9.29378 -5.77187 10.03643 5.94965
-0.55802 -0.12441 0.74461 -185.22051 -46.16119 -11.91681 37.89093 1.11721 2.55354 4.50358 9.86017 -0.83079 68.55317 -10.91052 19.17763 121.6488 115.67358 -55.04744 -6.84652 -61.85133 59.23267 -36.98978 112.05235 -130.99574 -47.23771 9.65421 44.1507 -6.31846 -6.04214 -21.55662 -6.98769 -3.26652 -2.34739 27.27411 -2.40427 -9.37623 -7.00457 -4.77395 17.70187 10.01616
-0.56356 -0.12548 0.74489 -185.19071 -46.17547 -11.9799 37.80705 1.33222 2.153 4.47756 9.21486 -0.83079 70.05144 -10.8451 19.47765 120.7433 115.19255 -54.45182 -6.81417 -61.77798 59.28724 -36.94217 111.86155 -130.96844 -46.79537 9.68577 46.15562 -6.3365 -5.78543 -21.15862 -6.93796 -3.20082 -2.31157 25.55916 -2.34713 -13.95738 -4.86404 -3.86196 24.09217 13.40848
-0.56899 -0.12645 0.74519 -185.21312 -46.17933 -12.07845 37.70146 1.5536 1.7508 4.43363 8.58175 -0.83079 71.52812 -10.71295 19.79326 119.83624 114.70953 -53.84485 -6.78311 -61.86785 59.31974 -36.69859 111.72373 -131.35857 -46.60137 9.7705 48.18195 -6.33412 -5.5916 -20.62081 -6.90047 -3.11618 -2.26649 23.72042 -2.28839 -20.50041 -2.45952 -3.0458 33.10815 18.18404
-0.57468 -0.12764 0.74543 -185.08206 -46.21376 -12.07251 37.65074 1.7537 1.35014 4.42548 7.89986 -0.83079 73.04162 -10.7341 20.10442 118.92514 114.13132 -53.18051 -6.74035 -61.63758 59.32807 -36.78641 111.45609 -131.02888 -45.91242 9.77706 50.15206 -6.38891 -5.26512 -20.38669 -6.84285 -3.07385 -2.24295 22.11772 -2.23946 -23.23389 -0.55915 -1.98302 37.07294 20.30015
-0.58105 -0.12937 0.74554 -184.58057 -46.32648 -11.81711 37.74284 1.90628 0.94524 4.51158 7.10248 -0.83079 74.63594 -11.14758 20.35316 118.03125 113.43747 -52.5057 -6.67651 -60.45592 59.35647 -37.92594 110.83668 -128.25768 -43.65209 9.49248 52.03876 -6.57828 -4.52155 -20.9967 -6.71879 -3.15403 -2.28092 21.20195 -2.21208 -14.64659 -0.10843 -0.20352 26.01247 14.49991
-0.58771 -0.13132 0.74557 -183.92922 -46.46842 -11.4596 37.88885 2.03786 0.54407 4.63668 6.26129 -0.83079 76.27429 -11.71801 20.5973 117.13056 112.65505 -51.77246 -6.60193 -58.96329 59.36419 -39.39169 110.09239 -124.81261 -40.93198 9.13497 53.85611 -6.82384 -3.65718 -21.90894 -6.57496 -3.2764 -2.34034 20.52443 -2.19287 -2.30615 -0.16999 1.80036 9.9614 6.07204
-0.59426 -0.13318 0.74562 -183.34027 -46.59455 -11.14325 38.00846 2.17681 0.14804 4.74968 5.44445 -0.83079 77.91343 -12.23207 20.8578 116.21897 111.87765 -51.01529 -6.53051 -57.65634 59.36309 -40.65318 109.41424 -121.93417 -38.57422 8.84781 55.66081 -7.05004 -2.88981 -22.67322 -6.44413 -3.37627 -2.38848 19.72818 -2.16914 7.93762 0.01027 3.63578 -3.33054 -0.89951
-0.60068 -0.13496 0.74577 -182.7684 -46.73144 -10.84392 38.13552 2.32397 -0.2774 4.83703 4.60447 -0.83079 79.46417 -12.68707 21.06186 115.36541 111.22479 -50.45109 -6.4642 -56.16802 59.42612 -42.13644 108.69237 -118.01401 -35.59265 8.41378 57.65319 -7.25518 -1.94629 -23.48381 -6.29691 -3.49045 -2.44335 18.9717 -2.1511 19.81387 0.15998 5.7503 -18.66697 -8.95975
-0.60747 -0.13698 0.74569 -182.12861 -46.85393 -10.48745 38.26185 2.44931 -0.64029 4.98888 3.80453 -0.83079 81.20887 -13.29839 21.38113 114.38981 110.30958 -49.48693 -6.38628 -54.9768 59.35893 -43.24647 108.03441 -116.04199 -33.76964 8.25839 59.23624 -7.51308 -1.3376 -24.26901 -6.17901 -3.58446 -2.48902 18.19181 -2.1212 29.1769 0.24813 7.34628 -30.92325 -15.37626
-0.6151 -0.13959 0.74504 -181.33229 -46.91538 -9.99132 38.35099 2.52093 -0.83343 5.29558 3.11953 -0.83079 83.48746 -14.33196 22.01654 113.0786 108.58529 -47.33469 -6.26997 -54.73983 58.89405 -43.17448 107.5718 -120.11255 -35.54147 8.96626 59.72366 -7.93391 -1.71875 -24.9126 -6.14562 -3.61594 -2.50609 17.27423 -2.06952 30.82199 0.29929 7.33489 -33.67679 -16.69781
-0.62311 -0.14243 0.74415 -180.47565 -46.96346 -9.4436 38.44136 2.57123 -0.96323 5.6683 2.47834 -0.83079 85.95709 -15.51119 22.76766 111.64541 106.62351 -44.80343 -6.14435 -54.80275 58.30709 -42.72851 107.18029 -126.07886 -38.44661 9.94344 59.79818 -8.39977 -2.43552 -25.52022 -6.14248 -3.62499 -2.51277 16.32775 -2.00294 29.7877 0.30369 6.80792 -33.12559 -16.2619
-0.63101 -0.14518 0.74334 -179.65011 -47.02712 -8.92399 38.54539 2.63056 -1.12069 6.02011 1.82141 -0.83079 88.33504 -16.60539 23.46773 110.26782 104.84016 -42.5094 -6.02892 -54.68905 57.80696 -42.50398 106.76453 -130.84026 -40.64225 10.74575 60.05034 -8.82441 -2.97424 -26.14163 -6.12632 -3.64205 -2.52286 15.40496 -1.93462 29.89126 0.32365 6.60411 -33.94524 -16.57756
-0.63868 -0.14786 0.74266 -178.8 -47.05296 -8.37905 38.59147 2.69192 -1.28307 6.33566 1.14409 -0.83079 90.73987 -17.7873 24.16276 108.8875 102.74923 -39.93207 -5.88742 -54.73046 57.17798 -42.0801 106.31094 -137.00054 -43.62596 11.76297 60.34281 -9.33877 -3.61262 -26.78161 -6.10675 -3.66992 -2.53926 14.44705 -1.90293 30.45763 0.3503 6.06306 -35.48298 -17.18373
-0.64692 -0.15075 0.74165 -177.99331 -47.15242 -7.87845 38.75764 2.74427 -1.41985 6.74091 0.52172 -0.83079 93.12745 -18.81567 24.89389 107.48619 101.252 -37.86405 -5.79881 -54.52949 56.78319 -41.96988 105.9539 -140.74061 -45.26448 12.40267 60.45355 -9.67611 -4.12956 -27.37392 -6.10132 -3.66927 -2.53972 13.55087 -1.79079 29.38062 0.35801 6.06156 -34.68576 -16.73282
